<?xml version="1.0" encoding="utf-8"?>
<!-- Generator: Adobe Illustrator 21.0.2, SVG Export Plug-In . SVG Version: 6.00 Build 0)  -->
<svg version="1.1" id="1" xmlns="http://www.w3.org/2000/svg" xmlns:xlink="http://www.w3.org/1999/xlink" x="0px" y="0px" width="300px" height="80px"
	 viewBox="50 10 120 50" style="enable-background:new 50 10 120 50;" xml:space="preserve">
<style type="text/css">
	.st0{fill:#FF1C79;}
</style>
<g>
	<path d="M26.7,32.1l-6.2-11.5c0.1,1.6,0.1,3.4,0.1,4.8v6.7h-2.2v-14h3.1l6.3,11.6c0-1.6-0.1-3.4-0.1-4.9v-6.7h2.2l0,14H26.7z"/>
	<path d="M42.8,26.7c0,3.1-1.8,5.7-5.4,5.7c-3.6,0-5.4-2.5-5.4-5.7c0-3.1,1.8-5.6,5.4-5.6C41,21,42.8,23.5,42.8,26.7z M40.5,26.7
		c0-2.4-1.1-4-3.1-4c-2,0-3.1,1.6-3.1,4c0,2.4,1.1,4,3.1,4C39.3,30.7,40.5,29.1,40.5,26.7z"/>
	<path class="st0" d="M64.5,23.5L64.5,23.5c-0.6-0.5-1.1-0.8-1.7-0.9c1.1-0.8,1.7-2.1,1.7-3.6c0-3-1.7-5-4.6-5
		c-1.2,0-2.2,0.3-2.9,0.9c0.6,0.1,1.2,0.3,1.7,0.5c0.4-0.2,0.8-0.2,1.2-0.2c1.9,0,3,1.4,3,3.8c0,1.1-0.2,1.9-0.7,2.6c0,0,0,0,0,0.1
		c0,0.7-0.1,1.5-0.3,2.1c0,0,0,0,0,0c0.5,0,1,0.1,1.9,0.7c0.4,0.3,0.8,0.8,1.1,1.6l1.2-0.4C65.6,24.6,65,23.9,64.5,23.5z"/>
	<g>
		<path class="st0" d="M61.4,27L61.4,27c-0.7-0.6-1.3-0.9-2.1-1.1c1.3-0.9,2-2.5,2-4.3c0-3.5-2-6-5.5-6c-1.6,0-2.8,0.5-3.7,1.3
			c0.7,0.1,1.4,0.2,2.1,0.5c0.5-0.3,1-0.4,1.7-0.4c2.2,0,3.5,1.7,3.5,4.6c0,1.2-0.2,2.1-0.7,2.9c0,0.2,0,0.4,0,0.6
			c0,0.8-0.1,1.5-0.3,2.2c0.5,0,1.1,0.2,2.1,0.9c0.4,0.4,1,1,1.3,2l1.4-0.5C62.7,28.4,62,27.5,61.4,27z"/>
		<path class="st0" d="M58,31.6L58,31.6c-0.9-0.7-1.6-1.2-2.5-1.3c1.6-1.2,2.4-3.1,2.4-5.2c0-4.3-2.4-7.3-6.7-7.3
			c-4.3,0-6.7,2.9-6.7,7.3c0,4.3,2.4,7.3,6.7,7.3c0.5,0,1,0,1.4-0.1c0.6-0.1,0.9-0.2,1.5-0.2c0.8,0,1.4,0.2,2.7,1.1
			c0.5,0.5,1.2,1.2,1.6,2.4l1.8-0.6C59.6,33.3,58.7,32.2,58,31.6z M51.1,30.6c-2.7,0-4.4-2.1-4.4-5.6c0-3.5,1.6-5.6,4.4-5.6
			c2.7,0,4.3,2.1,4.3,5.6C55.5,28.5,53.8,30.6,51.1,30.6z"/>
	</g>
	<path d="M68,27.4l-1.5,4.6h-2.4l5-14H72l4.9,14h-2.4l-1.5-4.6H68z M72.3,25.7l-1.8-5.7l-1.9,5.7H72.3z"/>
	<path d="M89,26.5c0,3.9-2.4,5.9-5.2,5.9c-0.9,0-2-0.2-2.6-0.7l-0.7-1.1V36h-2.2V21.3h2.2V23l0.8-1.2c0.6-0.5,1.7-0.8,2.8-0.8
		C87.2,21,89,23.3,89,26.5z M86.6,26.7c0-2.3-1.1-4-3-4c-1.7,0-3.1,1.1-3.1,3.9v0.5c0,2.6,1.6,3.6,3,3.6
		C85.3,30.7,86.6,29.4,86.6,26.7z"/>
	<path d="M101.7,26.5c0,3.9-2.4,5.9-5.2,5.9c-0.9,0-2-0.2-2.6-0.7l-0.7-1.1V36H91V21.3h2.2V23l0.8-1.2c0.6-0.5,1.7-0.8,2.8-0.8
		C99.9,21,101.7,23.3,101.7,26.5z M99.3,26.7c0-2.3-1.1-4-3-4c-1.7,0-3.1,1.1-3.1,3.9v0.5c0,2.6,1.6,3.6,3,3.6
		C98,30.7,99.3,29.4,99.3,26.7z"/>
</g>
</svg>
